<?xml version="1.0" encoding="utf-8"?>
<!-- Generator: Adobe Illustrator 23.0.2, SVG Export Plug-In . SVG Version: 6.00 Build 0)  -->
<svg version="1.1" id="Layer_1" xmlns="http://www.w3.org/2000/svg" xmlns:xlink="http://www.w3.org/1999/xlink" x="0px" y="0px"
	 viewBox="0 0 330 71.43" style="enable-background:new 0 0 330 71.43;" xml:space="preserve">
<style type="text/css">
	.st0{fill:#FFFFFF;}
	.st1{fill:#F36F21;}
</style>
<g>
	<g>
		<path class="st0" d="M218.21,22.76c1.68-0.95,3.51-1.43,5.5-1.43c1.6,0,3.19,0.32,4.78,0.95c1.59,0.63,2.98,1.53,4.19,2.67
			l3.44-4.49c-1.6-1.42-3.5-2.54-5.71-3.35c-2.2-0.82-4.44-1.22-6.7-1.22c-3.17,0-6.06,0.72-8.68,2.15
			c-2.61,1.43-4.67,3.38-6.18,5.84c-1.51,2.46-2.27,5.2-2.27,8.22c0,3.02,0.74,5.78,2.22,8.27c1.48,2.49,3.5,4.46,6.05,5.91
			c2.55,1.45,5.38,2.17,8.49,2.17c2.17,0,4.39-0.39,6.66-1.16c2.27-0.77,4.23-1.77,5.89-3.01V32.25h-5.3v8.74
			c-1.09,0.63-2.23,1.13-3.42,1.47c-1.19,0.35-2.33,0.52-3.42,0.52c-2.02,0-3.87-0.48-5.53-1.45c-1.66-0.97-2.98-2.28-3.96-3.94
			c-0.98-1.66-1.47-3.49-1.47-5.48c0-1.96,0.48-3.77,1.45-5.44C215.21,25.02,216.53,23.71,218.21,22.76z"/>
		<path class="st0" d="M327.6,26.07c-1.6-1.68-3.79-2.51-6.57-2.51c-4.17,0.06-7.08,1.68-8.74,4.85v-14h-5.89v33.61h5.89V36.1
			c0-2.02,0.57-3.68,1.72-4.98c1.15-1.3,2.7-1.96,4.67-1.99c1.66,0,2.97,0.49,3.94,1.47c0.97,0.98,1.45,2.32,1.45,4.01v13.41H330
			V32.88C330,30.02,329.2,27.74,327.6,26.07z"/>
		<path class="st0" d="M297.12,25.41c-1.92-1.03-4.13-1.54-6.64-1.54c-2.54,0-4.77,0.51-6.7,1.54c-1.93,1.03-3.44,2.47-4.51,4.33
			c-1.07,1.86-1.61,3.99-1.61,6.41c0,0.03,0,0.06,0,0.09h0v20.32h5.93v-9.69c0.06,0.03,0.12,0.07,0.18,0.1
			c1.93,1.03,4.17,1.54,6.7,1.54c2.51,0,4.72-0.51,6.64-1.54c1.92-1.03,3.41-2.48,4.49-4.35c1.07-1.87,1.61-4.03,1.61-6.48
			c0-2.42-0.54-4.55-1.61-6.41C300.53,27.88,299.04,26.44,297.12,25.41z M295.38,41.54c-1.27,1.36-2.9,2.04-4.89,2.04
			c-2.05,0-3.71-0.68-4.98-2.04c-1.27-1.36-1.9-3.12-1.9-5.3v0h0c0-2.17,0.63-3.94,1.9-5.3c1.27-1.36,2.93-2.04,4.98-2.04
			c1.99,0,3.62,0.68,4.89,2.04c1.27,1.36,1.9,3.13,1.9,5.3C297.28,38.41,296.65,40.18,295.38,41.54z"/>
		<path class="st0" d="M253.82,23.55c-7.64,0.03-13.84,6.03-13.84,13.67v10.79h5.87V37.22c0-4.41,3.57-8,7.97-8.03V23.55z"/>
		<path class="st0" d="M271.86,25.82c-1.74-1.51-4.18-2.27-7.32-2.27c-0.26,0-6.41,0-6.41,0v4.8h5.1c1.78,0,3.14,0.39,4.08,1.18
			c0.94,0.79,1.4,1.89,1.4,3.31l0,0.63h-7.07c-2.93,0.03-5.19,0.69-6.8,1.97c-1,0.8-1.69,1.8-2.06,2.98
			c-0.23,0.71-0.34,1.49-0.34,2.34c0,0.36,0.02,0.7,0.06,1.04c0.02,0.17,0.05,0.34,0.08,0.5c0.07,0.33,0.15,0.65,0.26,0.96
			c0.16,0.47,0.37,0.92,0.64,1.35c0.52,0.86,1.21,1.58,2.06,2.16c0.14,0.1,0.29,0.19,0.44,0.28c0.15,0.09,0.31,0.17,0.47,0.26
			c0.21,0.1,0.42,0.2,0.63,0.28c1.13,0.46,2.41,0.69,3.83,0.69c0.09,0,1.35,0,2.42,0c0.79,0,1.47,0,1.47,0c0.6,0,1.16,0,1.23,0
			c1.69,0,3.18-0.32,4.46-0.97c1.28-0.65,2.27-1.55,2.97-2.7c0.7-1.15,1.04-2.43,1.04-3.85c0-0.74,0-8.61,0-8.61
			C274.48,29.44,273.59,27.33,271.86,25.82z M268.71,39.26c0,0,0,0.15,0,1.14c0,1.03-0.39,1.84-1.16,2.45
			c-0.77,0.6-1.82,0.91-3.15,0.91c-0.11,0-1.69,0-2.02,0c-0.03,0-0.05,0-0.06,0c-0.5,0-0.96-0.04-1.38-0.13
			c-0.7-0.14-1.29-0.4-1.77-0.78c-0.19-0.15-0.36-0.32-0.51-0.49c-0.07-0.09-0.14-0.18-0.2-0.28c-0.3-0.48-0.45-1.04-0.45-1.68
			c0-0.26,0.02-0.51,0.07-0.74c0.09-0.45,0.28-0.84,0.55-1.14c0.07-0.08,0.14-0.15,0.23-0.22c0.08-0.07,0.17-0.13,0.26-0.19
			c0.18-0.12,0.4-0.22,0.63-0.31c0.12-0.04,0.24-0.08,0.37-0.12c0.66-0.18,1.48-0.27,2.46-0.27h6.12V39.26z"/>
	</g>
	<g>
		<polygon class="st1" points="95.75,21.9 105.63,21.9 105.63,48.23 111.74,48.23 111.74,21.9 121.62,21.9 121.62,16.51 
			95.75,16.51 		"/>
		<rect x="125.04" y="26.12" class="st1" width="5.89" height="21.9"/>
		<path class="st1" d="M189.93,37.22v10.79h5.87V37.22c0-4.41,3.57-8,7.97-8.03v-5.64C196.13,23.58,189.93,29.58,189.93,37.22z"/>
		<path class="st1" d="M146.87,23.43c-6.77,0-12.27,5.31-12.27,11.83c0,6.52,5.51,11.83,12.27,11.83c2.34,0,4.52-0.63,6.38-1.73
			v0.49c0,1.93-0.64,3.46-1.93,4.58c-1.28,1.12-3.01,1.68-5.19,1.68c-2.75,0-5.27-0.85-7.57-2.54l-2.36,4.26
			c3.14,2.14,6.55,3.22,10.24,3.22c2.54,0,4.76-0.46,6.68-1.38c1.92-0.92,3.4-2.24,4.44-3.94c1.04-1.71,1.56-3.71,1.56-6V35.26
			C159.14,28.73,153.63,23.43,146.87,23.43z M146.87,42.25c-3.56,0-6.87-3.16-6.87-7.05s3.31-7.05,6.87-7.05s6.87,3.16,6.87,7.05
			S150.43,42.25,146.87,42.25z"/>
		<circle class="st1" cx="127.98" cy="19.87" r="3.35"/>
		<path class="st1" d="M174.77,23.6c-2.39,0-4.52,0.52-6.39,1.56c-1.87,1.04-3.33,2.5-4.37,4.37c-1.04,1.87-1.56,4.02-1.56,6.43
			c0,2.42,0.51,4.55,1.54,6.41c1.03,1.86,2.48,3.3,4.37,4.33c1.89,1.03,4.07,1.54,6.55,1.54c2.11,0,4.04-0.36,5.78-1.09
			c1.74-0.73,3.21-1.75,4.42-3.08l-3.17-3.31c-0.85,0.88-1.83,1.55-2.97,2.02c-1.13,0.47-2.32,0.7-3.56,0.7
			c-1.78,0-3.28-0.49-4.51-1.47c-1.22-0.98-2.03-2.33-2.42-4.05h17.89c0.03-0.39,0.05-0.98,0.05-1.77c0-3.99-0.97-7.08-2.92-9.29
			C181.55,24.7,178.64,23.6,174.77,23.6z M168.46,33.38c0.33-1.51,1.01-2.73,2.03-3.64c1.16-1.04,2.6-1.56,4.33-1.56
			c1.84,0,3.32,0.53,4.44,1.59c0.98,0.93,1.55,2.13,1.72,3.62H168.46z"/>
	</g>
	<path class="st1" d="M70.01,26.98c0,0-0.21-0.32-0.38-0.24c-0.22,0.02-0.16,0.39-0.16,0.39c0.44,5.99-2.98,15.5-16.63,24.41
		c0,0-0.25,0.19-0.47,0.07c-0.22-0.11,0.02-0.44,0.02-0.44c5.95-6.53,19.33-24.79,4.6-36.22c0,0-0.36-0.33-0.67-0.24
		c-0.32,0.09-0.22,0.45-0.22,0.45c3.48,9.31-1,17.26-3.3,20.61c0,0-0.21,0.31-0.43,0.28c-0.22-0.03-0.13-0.47-0.13-0.47
		C55.38,22.2,50.05,13.88,41.4,7.12L43.49,0l-6.38,0.07c0,0-4.75,0.15-9.44,3.19c-2.26,0.01-4.52,0.3-6.67,0.9
		c-1.56,0.43-5.5,2.01-9.4,5.91C11.54,10.08,0,22.98,0,22.98l5.79,7.91c-0.38,7.84,6.38,10.52,7.16,10.84
		c1.71-3.89,7.29-8.6,13.02-8.4c2.68,0.09,6.61,1.01,9.8,5.02c3.03-6.66-0.78-14.3-2.09-17.04c0,0-0.12-0.22,0.08-0.34
		c0.2-0.13,0.47,0.24,0.47,0.24c14.46,16.4-1.56,41.46-8.01,48.98c0,0-0.38,0.38-0.09,0.9c0.3,0.52,0.86,0.3,0.86,0.3
		c4.21-1.43,12.49-4.4,21.6-8.22C64.99,56.29,80.58,45.99,70.01,26.98z M16.15,19.39c-0.25,0.24-0.32-0.04-0.27-0.16
		c0.05-0.12,1.9-4.63,1.9-4.63c0.55-1.52,1.12-2.67,3.13-2.82l4.1-0.46C25.01,11.32,16.47,19.14,16.15,19.39z"/>
</g>
</svg>
